<?xml version="1.0" standalone="no"?>
<!DOCTYPE svg PUBLIC "-//W3C//DTD SVG 20010904//EN"
 "http://www.w3.org/TR/2001/REC-SVG-20010904/DTD/svg10.dtd">
<svg version="1.0" xmlns="http://www.w3.org/2000/svg"
 width="165.000000pt" height="247.000000pt" viewBox="0 0 165.000000 247.000000"
 preserveAspectRatio="xMidYMid meet">

<g transform="translate(0.000000,247.000000) scale(0.100000,-0.100000)"
fill="#000000" stroke="none">
<path d="M220 2043 c-77 -122 -103 -293 -80 -527 7 -73 10 -146 6 -161 -7 -26
-8 -27 -27 -10 -10 10 -22 16 -25 13 -8 -8 15 -126 32 -168 9 -19 26 -95 40
-168 13 -73 38 -176 55 -230 62 -193 188 -423 256 -467 15 -10 45 -36 67 -57
23 -21 61 -51 86 -65 25 -15 61 -39 80 -55 27 -22 45 -28 80 -28 25 0 50 4 55
8 6 5 26 15 45 22 74 27 86 34 104 57 10 13 15 31 12 39 -5 12 -12 9 -32 -16
l-27 -31 -23 22 c-14 13 -24 17 -24 10 0 -7 -5 -9 -10 -6 -6 4 -8 11 -4 16 9
15 -5 61 -16 54 -6 -3 -10 1 -10 9 0 9 -4 16 -10 16 -5 0 -10 -5 -10 -12 0 -6
-3 -8 -7 -4 -11 11 -12 67 -2 60 5 -3 14 8 20 26 7 17 24 37 41 46 38 20 23
39 -27 36 -66 -5 -112 15 -152 65 -21 26 -49 58 -62 71 l-23 25 83 -6 c73 -5
94 -3 160 19 71 23 78 24 112 9 20 -8 37 -19 37 -24 0 -11 48 -25 75 -22 11 2
23 8 27 15 13 20 9 64 -7 70 -8 3 -15 16 -16 28 0 13 -3 17 -6 11 -6 -17 -23
-16 -23 1 0 13 -39 30 -49 21 -7 -7 31 -45 44 -45 7 0 16 -12 19 -27 4 -16 9
-37 13 -47 4 -14 -10 -8 -56 25 -71 51 -140 89 -161 89 -8 0 4 -9 28 -20 51
-23 57 -50 10 -46 -18 2 -51 4 -73 5 -36 1 -43 6 -65 41 -31 51 -56 58 -109
31 -22 -12 -41 -18 -41 -14 1 14 78 63 99 63 12 0 21 6 21 15 0 8 -4 15 -10
15 -15 0 -12 20 3 21 6 0 26 17 43 37 l32 37 -52 58 -51 57 -49 -25 c-27 -13
-52 -22 -57 -19 -22 13 2 85 44 132 14 15 17 26 11 32 -28 28 -63 -21 -93
-130 -22 -78 -19 -90 24 -90 28 0 65 -28 65 -49 0 -33 -25 -51 -110 -82 -118
-43 -156 -46 -200 -17 -19 13 -37 32 -40 43 -3 11 -12 31 -21 45 -94 148 -123
215 -140 320 -9 61 -8 70 15 123 14 31 31 57 37 57 6 0 25 -10 41 -22 83 -59
192 -82 253 -53 l30 14 -35 -5 c-19 -3 -45 -1 -58 3 -20 8 -17 11 30 25 137
42 155 41 150 -12 -5 -45 19 -38 67 18 50 57 66 107 51 160 -17 65 -50 105
-115 137 -56 28 -68 30 -170 30 -60 0 -136 -4 -167 -9 l-57 -9 -21 34 c-19 30
-21 45 -17 119 4 80 20 142 61 233 22 51 12 47 -24 -10z m275 -452 c23 -10 54
-33 69 -52 l29 -34 -23 -5 -23 -6 26 -17 c45 -29 30 -35 -34 -13 -54 17 -68
18 -117 8 -31 -6 -58 -10 -60 -7 -10 9 68 35 110 36 33 2 36 3 13 6 -101 13
-175 53 -162 88 9 22 120 20 172 -4z m20 -151 c3 -5 2 -10 -4 -10 -5 0 -13 5
-16 10 -3 6 -2 10 4 10 5 0 13 -4 16 -10z m56 -10 c26 -14 24 -25 -6 -38 -39
-18 -45 -15 -34 18 12 34 13 34 40 20z m134 -1044 c6 -2 31 -9 58 -17 50 -14
58 -23 30 -34 -17 -7 -17 -8 0 -14 17 -6 16 -8 -3 -28 -11 -12 -20 -29 -20
-37 0 -21 21 -31 31 -15 6 10 9 8 9 -8 0 -56 -56 -3 -65 61 -4 25 -11 46 -17
46 -5 0 -20 -12 -33 -26 -14 -15 -25 -22 -25 -15 0 6 -8 11 -17 11 -17 1 -82
57 -72 63 2 1 13 8 24 14 17 11 62 10 100 -1z"/>
<path d="M1060 1688 c-33 -23 -61 -71 -47 -84 3 -3 27 1 53 10 60 20 168 21
224 1 61 -21 67 -19 36 14 -36 38 -114 71 -180 78 -42 4 -57 1 -86 -19z"/>
<path d="M1032 1510 c-26 -11 -44 -52 -40 -89 2 -18 11 -27 35 -33 19 -5 34
-17 38 -29 4 -11 18 -25 32 -30 34 -13 39 -6 8 11 -37 20 -30 30 19 30 58 0
76 8 87 36 11 31 20 30 59 -2 22 -19 34 -24 42 -16 14 14 -72 70 -121 78 -59
9 -90 24 -84 40 6 16 -38 18 -75 4z m153 -70 c3 -5 1 -10 -4 -10 -6 0 -11 5
-11 10 0 6 2 10 4 10 3 0 8 -4 11 -10z m-85 -35 c0 -27 -9 -32 -28 -13 -18 18
-14 38 8 38 15 0 20 -7 20 -25z"/>
<path d="M1530 1335 c0 -8 7 -15 15 -15 8 0 15 4 15 9 0 5 -7 11 -15 15 -9 3
-15 0 -15 -9z"/>
<path d="M880 980 c-11 -7 -9 -11 13 -19 33 -13 77 -14 77 -3 0 28 -58 42 -90
22z"/>
<path d="M855 871 c5 -16 2 -18 -14 -14 -16 4 -21 -1 -26 -23 -4 -16 -8 -34
-10 -40 -6 -20 38 -2 69 28 17 15 36 28 43 28 8 0 11 5 8 10 -4 6 -15 8 -25 5
-11 -3 -20 0 -24 10 -8 22 -28 19 -21 -4z"/>
<path d="M895 820 c-11 -17 5 -32 21 -19 7 6 11 15 8 20 -7 12 -21 11 -29 -1z"/>
<path d="M925 790 c-3 -6 1 -7 9 -4 18 7 21 14 7 14 -6 0 -13 -4 -16 -10z"/>
<path d="M895 290 c-3 -5 -1 -10 4 -10 6 0 11 5 11 10 0 6 -2 10 -4 10 -3 0
-8 -4 -11 -10z"/>
<path d="M1030 255 c-16 -30 -10 -40 15 -22 13 10 15 18 8 31 -8 15 -11 14
-23 -9z"/>
<path d="M930 235 c0 -8 4 -15 8 -15 5 0 9 7 9 15 0 8 -4 15 -9 15 -4 0 -8 -7
-8 -15z"/>
</g>
</svg>
